<svg width="420" height="115" viewBox="0 0 420 115" fill="none" xmlns="http://www.w3.org/2000/svg">
<g filter="url(#filter0_d_432_636)">
<path d="M142.464 24C85.0719 24 9 24.5039 9 24.5039V108H411V24.5039C411 24.5039 333.826 24 273.784 24C244.84 24 237.872 60.2151 210 60.2151C182.128 60.2151 173.016 24 142.464 24Z" fill="url(#paint0_linear_432_636)"/>
<path d="M142.464 24C85.0719 24 9 24.5039 9 24.5039V108H411V24.5039C411 24.5039 333.826 24 273.784 24C244.84 24 237.872 60.2151 210 60.2151C182.128 60.2151 173.016 24 142.464 24Z" stroke="#4F4F4F"/>
</g>
<circle cx="209" cy="25" r="24.5" fill="url(#paint1_radial_432_636)" stroke="#4F4F4F"/>
<defs>
<filter id="filter0_d_432_636" x="0.5" y="13.5" width="419" height="101" filterUnits="userSpaceOnUse" color-interpolation-filters="sRGB">
<feFlood flood-opacity="0" result="BackgroundImageFix"/>
<feColorMatrix in="SourceAlpha" type="matrix" values="0 0 0 0 0 0 0 0 0 0 0 0 0 0 0 0 0 0 127 0" result="hardAlpha"/>
<feOffset dy="-2"/>
<feGaussianBlur stdDeviation="4"/>
<feComposite in2="hardAlpha" operator="out"/>
<feColorMatrix type="matrix" values="0 0 0 0 0.0352941 0 0 0 0 0 0 0 0 0 0.364706 0 0 0 0.06 0"/>
<feBlend mode="normal" in2="BackgroundImageFix" result="effect1_dropShadow_432_636"/>
<feBlend mode="normal" in="SourceGraphic" in2="effect1_dropShadow_432_636" result="shape"/>
</filter>
<linearGradient id="paint0_linear_432_636" x1="210" y1="24" x2="210" y2="108" gradientUnits="userSpaceOnUse">
<stop offset="0.105" stop-color="#34343C"/>
<stop offset="1" stop-color="#4D4D5E"/>
</linearGradient>
<radialGradient id="paint1_radial_432_636" cx="0" cy="0" r="1" gradientUnits="userSpaceOnUse" gradientTransform="translate(209 25) rotate(90) scale(24)">
<stop stop-color="#565656"/>
<stop offset="1" stop-color="#3F3F3F"/>
</radialGradient>
</defs>
</svg>
